<svg width="21" height="21" viewBox="0 0 21 21" fill="none" xmlns="http://www.w3.org/2000/svg">
<path fill-rule="evenodd" clip-rule="evenodd" d="M10.6202 18.7088C15.0385 18.7088 18.6202 15.1271 18.6202 10.7088C18.6202 6.29052 15.0385 2.7088 10.6202 2.7088C6.20196 2.7088 2.62024 6.29052 2.62024 10.7088C2.62024 15.1271 6.20196 18.7088 10.6202 18.7088ZM14.3273 9.41591C14.7179 9.02538 14.7179 8.39222 14.3273 8.00169C13.9368 7.61117 13.3037 7.61117 12.9131 8.00169L9.62024 11.2946L8.32735 10.0017C7.93682 9.61117 7.30366 9.61117 6.91313 10.0017C6.52261 10.3922 6.52261 11.0254 6.91313 11.4159L8.91313 13.4159C9.30366 13.8064 9.93682 13.8064 10.3273 13.4159L14.3273 9.41591Z" fill="#71717A"/>
</svg>
