<svg width="107" height="16" viewBox="0 0 107 16" fill="none" xmlns="http://www.w3.org/2000/svg">
<path d="M9.39215 0.257854L11.7402 5.03126L16.9891 5.7969C17.0557 5.8068 17.1182 5.83511 17.1696 5.87863C17.221 5.92215 17.2593 5.97916 17.28 6.04323C17.3008 6.1073 17.3032 6.1759 17.2871 6.24129C17.271 6.30667 17.2369 6.36626 17.1887 6.41334L13.3913 10.1281L14.2879 15.3745C14.2995 15.4408 14.2922 15.509 14.267 15.5714C14.2417 15.6338 14.1995 15.6879 14.1451 15.7276C14.0907 15.7672 14.0262 15.7908 13.9591 15.7957C13.8919 15.8005 13.8248 15.7865 13.7652 15.7552L9.07015 13.2786L4.37509 15.7559C4.31556 15.7873 4.2484 15.8015 4.18124 15.7967C4.11407 15.7919 4.0496 15.7683 3.99515 15.7287C3.94071 15.6891 3.89846 15.635 3.87323 15.5726C3.84799 15.5101 3.84077 15.4419 3.85239 15.3756L4.74897 10.1281L0.95049 6.41334C0.902327 6.36626 0.868264 6.30667 0.852137 6.24129C0.83601 6.1759 0.838459 6.1073 0.859209 6.04323C0.87996 5.97916 0.918186 5.92215 0.969584 5.87863C1.02098 5.83511 1.08351 5.8068 1.15013 5.7969L6.39902 5.03126L8.74815 0.257854C8.77745 0.197365 8.82319 0.146351 8.88014 0.110656C8.93709 0.0749619 9.00294 0.0560303 9.07015 0.0560303C9.13736 0.0560303 9.20321 0.0749619 9.26016 0.110656C9.31711 0.146351 9.36285 0.197365 9.39215 0.257854Z" fill="#DBF301"/>
<path d="M31.6077 0.257854L33.9558 5.03126L39.2047 5.7969C39.2713 5.8068 39.3338 5.83511 39.3852 5.87863C39.4366 5.92215 39.4748 5.97916 39.4956 6.04323C39.5163 6.1073 39.5188 6.1759 39.5027 6.24129C39.4865 6.30667 39.4525 6.36626 39.4043 6.41334L35.6069 10.1281L36.5035 15.3745C36.515 15.4408 36.5078 15.509 36.4825 15.5714C36.4573 15.6338 36.4151 15.6879 36.3607 15.7276C36.3062 15.7672 36.2418 15.7908 36.1747 15.7957C36.1075 15.8005 36.0404 15.7865 35.9808 15.7552L31.2857 13.2786L26.5907 15.7559C26.5311 15.7873 26.464 15.8015 26.3968 15.7967C26.3296 15.7919 26.2652 15.7683 26.2107 15.7287C26.1563 15.6891 26.114 15.635 26.0888 15.5726C26.0636 15.5101 26.0563 15.4419 26.068 15.3756L26.9645 10.1281L23.1661 6.41334C23.1179 6.36626 23.0838 6.30667 23.0677 6.24129C23.0516 6.1759 23.054 6.1073 23.0748 6.04323C23.0955 5.97916 23.1338 5.92215 23.1852 5.87863C23.2366 5.83511 23.2991 5.8068 23.3657 5.7969L28.6146 5.03126L30.9637 0.257854C30.993 0.197365 31.0388 0.146351 31.0957 0.110656C31.1527 0.0749619 31.2185 0.0560303 31.2857 0.0560303C31.3529 0.0560303 31.4188 0.0749619 31.4757 0.110656C31.5327 0.146351 31.5784 0.197365 31.6077 0.257854Z" fill="#DBF301"/>
<path d="M53.8233 0.257854L56.1714 5.03126L61.4203 5.7969C61.4869 5.8068 61.5494 5.83511 61.6008 5.87863C61.6522 5.92215 61.6905 5.97916 61.7112 6.04323C61.732 6.1073 61.7344 6.1759 61.7183 6.24129C61.7021 6.30667 61.6681 6.36626 61.6199 6.41334L57.8225 10.1281L58.7191 15.3745C58.7307 15.4408 58.7234 15.509 58.6981 15.5714C58.6729 15.6338 58.6307 15.6879 58.5763 15.7276C58.5218 15.7672 58.4574 15.7908 58.3903 15.7957C58.3231 15.8005 58.256 15.7865 58.1964 15.7552L53.5013 13.2786L48.8063 15.7559C48.7467 15.7873 48.6796 15.8015 48.6124 15.7967C48.5453 15.7919 48.4808 15.7683 48.4263 15.7287C48.3719 15.6891 48.3296 15.635 48.3044 15.5726C48.2792 15.5101 48.272 15.4419 48.2836 15.3756L49.1801 10.1281L45.3817 6.41334C45.3335 6.36626 45.2994 6.30667 45.2833 6.24129C45.2672 6.1759 45.2696 6.1073 45.2904 6.04323C45.3111 5.97916 45.3494 5.92215 45.4008 5.87863C45.4522 5.83511 45.5147 5.8068 45.5813 5.7969L50.8302 5.03126L53.1793 0.257854C53.2086 0.197365 53.2544 0.146351 53.3113 0.110656C53.3683 0.0749619 53.4341 0.0560303 53.5013 0.0560303C53.5685 0.0560303 53.6344 0.0749619 53.6913 0.110656C53.7483 0.146351 53.794 0.197365 53.8233 0.257854Z" fill="#DBF301"/>
<path d="M76.0389 0.257854L78.387 5.03126L83.6359 5.7969C83.7025 5.8068 83.765 5.83511 83.8164 5.87863C83.8678 5.92215 83.9061 5.97916 83.9268 6.04323C83.9476 6.1073 83.95 6.1759 83.9339 6.24129C83.9178 6.30667 83.8837 6.36626 83.8355 6.41334L80.0381 10.1281L80.9347 15.3745C80.9463 15.4408 80.939 15.509 80.9138 15.5714C80.8885 15.6338 80.8463 15.6879 80.7919 15.7276C80.7375 15.7672 80.673 15.7908 80.6059 15.7957C80.5387 15.8005 80.4716 15.7865 80.412 15.7552L75.7169 13.2786L71.0219 15.7559C70.9624 15.7873 70.8952 15.8015 70.828 15.7967C70.7609 15.7919 70.6964 15.7683 70.6419 15.7287C70.5875 15.6891 70.5453 15.635 70.52 15.5726C70.4948 15.5101 70.4876 15.4419 70.4992 15.3756L71.3958 10.1281L67.5973 6.41334C67.5491 6.36626 67.5151 6.30667 67.4989 6.24129C67.4828 6.1759 67.4852 6.1073 67.506 6.04323C67.5267 5.97916 67.565 5.92215 67.6164 5.87863C67.6678 5.83511 67.7303 5.8068 67.7969 5.7969L73.0458 5.03126L75.3949 0.257854C75.4242 0.197365 75.47 0.146351 75.5269 0.110656C75.5839 0.0749619 75.6497 0.0560303 75.7169 0.0560303C75.7841 0.0560303 75.85 0.0749619 75.9069 0.110656C75.9639 0.146351 76.0096 0.197365 76.0389 0.257854Z" fill="#DBF301"/>
<path d="M98.2545 0.257854L100.603 5.03126L105.851 5.7969C105.918 5.8068 105.981 5.83511 106.032 5.87863C106.083 5.92215 106.122 5.97916 106.142 6.04323C106.163 6.1073 106.166 6.1759 106.149 6.24129C106.133 6.30667 106.099 6.36626 106.051 6.41334L102.254 10.1281L103.15 15.3745C103.162 15.4408 103.155 15.509 103.129 15.5714C103.104 15.6338 103.062 15.6879 103.007 15.7276C102.953 15.7672 102.889 15.7908 102.821 15.7957C102.754 15.8005 102.687 15.7865 102.628 15.7552L97.9325 13.2786L93.2375 15.7559C93.178 15.7873 93.1108 15.8015 93.0436 15.7967C92.9765 15.7919 92.912 15.7683 92.8576 15.7287C92.8031 15.6891 92.7609 15.635 92.7356 15.5726C92.7104 15.5101 92.7032 15.4419 92.7148 15.3756L93.6114 10.1281L89.8129 6.41334C89.7647 6.36626 89.7307 6.30667 89.7145 6.24129C89.6984 6.1759 89.7009 6.1073 89.7216 6.04323C89.7424 5.97916 89.7806 5.92215 89.832 5.87863C89.8834 5.83511 89.9459 5.8068 90.0125 5.7969L95.2614 5.03126L97.6106 0.257854C97.6398 0.197365 97.6856 0.146351 97.7425 0.110656C97.7995 0.0749619 97.8653 0.0560303 97.9325 0.0560303C97.9998 0.0560303 98.0656 0.0749619 98.1226 0.110656C98.1795 0.146351 98.2252 0.197365 98.2545 0.257854Z" fill="#DBF301"/>
</svg>
